<svg width="48" height="31" viewBox="0 0 48 31" fill="none" xmlns="http://www.w3.org/2000/svg">
<path d="M41.3268 27.0456C42.2923 27.546 43.1058 27.3851 43.7673 26.5631C44.4288 25.7411 44.5093 24.8834 44.0086 23.9899L40.2005 16.8063L37.3041 24.6868L41.3268 27.0456ZM29.9559 24.7941H33.7362L38.9132 11.8207C39.1277 11.3204 39.2082 10.829 39.1546 10.3465C39.1009 9.86401 38.8059 9.49768 38.2696 9.24751L33.8177 7.3176C33.3171 7.06742 32.8165 7.06742 32.3159 7.3176C31.8153 7.56777 31.5471 7.94303 31.5114 8.44338L29.9559 24.7941ZM14.0667 24.7941H17.7805L16.2786 8.44338C16.2429 7.90729 16.0015 7.51416 15.5545 7.26399C15.1076 7.01381 14.5802 7.03168 13.9723 7.3176L9.735 9.14029C9.27015 9.31899 9.01091 9.72105 8.95727 10.3465C8.90364 10.9719 8.96621 11.5348 9.145 12.0352L14.0667 24.7941ZM6.46318 27.0456L10.4859 24.6868L7.58955 16.8063L3.78136 24.258C3.28076 25.2587 3.38803 26.0717 4.10318 26.6972C4.81833 27.3226 5.605 27.4387 6.46318 27.0456ZM20.9986 24.7941H26.7377L28.5077 5.28046C28.5792 4.78011 28.4452 4.36018 28.1055 4.02066C27.7658 3.68113 27.3456 3.51137 26.845 3.51137H20.945C20.3729 3.51137 19.9438 3.68113 19.6577 4.02066C19.3717 4.36018 19.2465 4.78011 19.2823 5.28046L20.9986 24.7941ZM5.28318 30.6106C3.80318 30.6106 2.55255 30.0826 1.53132 29.0265C0.510439 27.97 0 26.7022 0 25.2229C0 24.7683 0.0804546 24.3248 0.241364 23.8924C0.402273 23.4603 0.580703 23.0348 0.776655 22.6159L5.67258 13.1352C5.13622 11.6817 5.10189 10.2434 5.5696 8.82025C6.03695 7.39747 6.9443 6.39159 8.29165 5.80261L12.7435 3.97991C13.3156 3.76548 13.8966 3.63825 14.4866 3.59822C15.0766 3.55819 15.6262 3.69472 16.1354 4.00779C16.3872 2.83841 16.9593 1.87809 17.8518 1.12686C18.7439 0.37562 19.775 0 20.945 0H26.845C28.015 0 29.0461 0.348815 29.9382 1.04644C30.8307 1.74407 31.4028 2.65971 31.6546 3.79336C32.1909 3.5875 32.7473 3.50458 33.3237 3.54461C33.9002 3.58464 34.4565 3.72974 34.9929 3.97991L39.4984 5.80261C40.8729 6.32869 41.8049 7.29204 42.2944 8.69266C42.7843 10.0936 42.7339 11.4673 42.1432 12.8136L47.0134 22.5623C47.165 22.9726 47.3323 23.3782 47.5154 23.7792C47.6985 24.1799 47.79 24.5896 47.79 25.0085C47.79 26.5864 47.2259 27.9146 46.0978 28.9932C44.9693 30.0715 43.6114 30.6106 42.0241 30.6106C41.6136 30.6106 41.2256 30.528 40.8602 30.3629C40.4951 30.1978 40.1252 30.0395 39.7505 29.888L36.5301 28.3054H11.2062L8.1597 29.888C7.70486 30.0752 7.24127 30.2425 6.76891 30.3897C6.29619 30.537 5.80095 30.6106 5.28318 30.6106Z" fill="#080C0C"/>
</svg>
