<svg xmlns="http://www.w3.org/2000/svg" aria-hidden="true" style="position:absolute;width:0;height:0;overflow:hidden" version="1.1">
  <defs>
    <symbol id="icon-arrow_outward" viewBox="0 0 32 32">
      <path d="M21.72 10.401 8.926 23.203q-.347.34-.8.34c-.453 0-.565-.116-.792-.348q-.348-.348-.348-.8c0-.452.116-.568.348-.8L20.128 8.801H8.863q-.489 0-.816-.329c-.327-.329-.327-.49-.327-.812q0-.483.327-.806c.327-.323.49-.323.816-.323h14q.481 0 .808.328c.327.328.327.488.327.808v14q0 .481-.329.808c-.329.327-.49.328-.812.328q-.491 0-.815-.328c-.324-.328-.323-.487-.323-.808V10.402z"/>
    </symbol>
    <symbol id="icon-close" viewBox="0 0 32 32">
      <path stroke-linecap="butt" stroke-linejoin="miter" stroke-miterlimit="4" stroke-width="1.333" d="M23.466 7.9c.219 0 .355.065.462.172s.172.242.172.461-.065.355-.172.462L16.923 16l7.005 7.004c.107.107.172.243.172.462s-.065.355-.172.462-.243.172-.462.172-.355-.065-.462-.172L16 16.923l-7.005 7.005c-.107.107-.243.172-.462.172s-.354-.065-.461-.172-.172-.243-.172-.462.065-.355.172-.462L15.076 16 8.072 8.995c-.107-.107-.172-.243-.172-.462s.065-.354.172-.461.242-.172.461-.172.355.065.462.172L16 15.076l7.004-7.004c.107-.107.243-.172.462-.172"/>
    </symbol>
    <symbol id="icon-Facebook" viewBox="0 0 32 32">
      <path d="M29.333 16.405C29.333 8.996 23.364 2.99 16 2.99S2.667 8.996 2.667 16.405c0 6.696 4.876 12.245 11.25 13.252v-9.374h-3.385v-3.878h3.385V13.45c0-3.362 1.991-5.219 5.036-5.219 1.459 0 2.985.262 2.985.262v3.301h-1.681c-1.656 0-2.173 1.034-2.173 2.095v2.516h3.698l-.591 3.878h-3.107v9.374c6.374-1.006 11.25-6.556 11.25-13.252z"/>
    </symbol>
    <symbol id="icon-Instagram" viewBox="0 0 32 32">
      <path d="M15.998 6.161c3.206 0 3.585.014 4.846.071 1.172.052 1.804.248 2.226.412.558.216.961.478 1.378.895.422.422.679.82.9 1.378.164.422.361 1.059.412 2.226.056 1.266.071 1.645.071 4.847s-.014 3.585-.071 4.847c-.052 1.172-.248 1.804-.412 2.227a3.7 3.7 0 0 1-.895 1.377c-.422.422-.82.679-1.378.9-.422.164-1.06.361-2.226.412-1.266.056-1.645.071-4.847.071s-3.585-.014-4.847-.071c-1.172-.052-1.804-.248-2.226-.412a3.7 3.7 0 0 1-1.378-.895 3.8 3.8 0 0 1-.9-1.378c-.164-.422-.361-1.06-.412-2.226-.056-1.266-.071-1.645-.071-4.847s.014-3.585.071-4.847c.052-1.172.248-1.804.412-2.226.216-.558.478-.961.895-1.378.422-.422.82-.679 1.378-.9.422-.164 1.059-.361 2.226-.412 1.261-.056 1.641-.071 4.847-.071zm0-2.16c-3.258 0-3.665.014-4.945.071-1.275.056-2.151.262-2.91.558a5.85 5.85 0 0 0-2.127 1.387A5.9 5.9 0 0 0 4.629 8.14c-.295.764-.502 1.636-.558 2.91C4.015 12.335 4 12.742 4 15.999s.014 3.665.071 4.945c.056 1.275.262 2.151.558 2.91a5.9 5.9 0 0 0 1.387 2.127 5.9 5.9 0 0 0 2.123 1.383c.764.295 1.636.502 2.91.558 1.279.056 1.687.071 4.945.071s3.666-.014 4.945-.071c1.275-.056 2.151-.262 2.91-.558.787-.305 1.458-.717 2.123-1.383s1.078-1.336 1.383-2.123c.295-.764.502-1.635.558-2.91.056-1.279.071-1.687.071-4.945s-.014-3.665-.071-4.945c-.056-1.275-.262-2.151-.558-2.91a5.6 5.6 0 0 0-1.373-2.133 5.9 5.9 0 0 0-2.123-1.383c-.764-.295-1.635-.502-2.91-.558-1.284-.061-1.692-.075-4.949-.075L15.999 4z"/>
      <path d="M15.998 9.836a6.164 6.164 0 1 0 6.163 6.163 6.164 6.164 0 0 0-6.163-6.163m0 10.161a3.998 3.998 0 1 1 0-7.996 3.998 3.998 0 0 1 0 7.996M23.843 9.592a1.439 1.439 0 1 1-2.877 0 1.439 1.439 0 0 1 2.877 0"/>
    </symbol>
    <symbol id="icon-keyboard_arrow_down" viewBox="0 0 32 32">
      <path d="M16 20.269q-.224 0-.422-.083a.96.96 0 0 1-.381-.265l-6.592-6.592q-.34-.34-.323-.812c.017-.472.13-.586.357-.812q.34-.34.812-.34c.472 0 .586.113.812.34l5.738 5.771 5.771-5.771q.34-.34.796-.323c.456.017.569.13.796.357q.34.34.34.812c0 .472-.113.586-.34.812l-6.559 6.559q-.183.183-.381.265a.9.9 0 0 1-.422.083z"/>
    </symbol>
    <symbol id="icon-menu" viewBox="0 0 32 32">
      <path d="M4.936 24.295q-.481 0-.808-.329c-.327-.329-.327-.493-.327-.82q0-.483.327-.807c.327-.324.488-.323.808-.323h22.127q.481 0 .812.329c.331.329.331.49.331.812q0 .491-.331.814c-.331.323-.492.323-.812.323zm0-7.159q-.481 0-.808-.329c-.327-.329-.327-.49-.327-.812q0-.483.327-.806c.327-.323.488-.323.808-.323h22.127q.481 0 .812.329c.331.329.331.49.331.812q0 .483-.331.806c-.331.323-.492.323-.812.323zm0-7.152q-.481 0-.808-.329c-.327-.329-.327-.493-.327-.82q0-.483.327-.806c.327-.323.488-.323.808-.323h22.127q.481 0 .812.329c.331.329.331.49.331.812q0 .492-.331.815c-.331.323-.492.323-.812.323z"/>
    </symbol>
    <symbol id="icon-Youtube" viewBox="0 0 32 32">
      <path d="M28.791 9.604a3.35 3.35 0 0 0-2.35-2.354C24.353 6.677 16 6.667 16 6.667s-8.352-.009-10.441.539a3.416 3.416 0 0 0-2.354 2.371c-.551 2.088-.556 6.419-.556 6.419s-.005 4.352.541 6.419a3.34 3.34 0 0 0 2.351 2.353c2.109.573 10.44.583 10.44.583s8.353.009 10.441-.537a3.36 3.36 0 0 0 2.356-2.35c.552-2.087.556-6.416.556-6.416s.027-4.353-.543-6.441zM13.328 20.007l.007-8 6.943 4.007z"/>
    </symbol>
    <symbol id="icon-arrow" viewBox="0 0 32 32">
      <path d="m9.46 17.136 7.336 7.335q.34.34.344.8c.004.46-.109.574-.336.803q-.34.344-.802.34c-.462-.004-.577-.117-.805-.344L5.93 16.803q-.182-.184-.265-.383c-.083-.199-.083-.273-.083-.422a1.08 1.08 0 0 1 .348-.803l9.275-9.275q.351-.34.806-.34c.455 0 .567.113.794.34q.34.348.34.803c0 .455-.113.569-.34.796l-7.344 7.343h16.27q.488 0 .816.323c.328.323.328.486.328.812s-.109.597-.328.812a1.12 1.12 0 0 1-.816.323H9.461z"/>
    </symbol>
    <symbol id="icon-half-star" viewBox="0 0 32 32">
      <path d="m31.829 11.312.128.4a.785.785 0 0 1-.223.848l-7.755 6.64 2.298 9.952a.82.82 0 0 1-.303.848l-.351.24a.75.75 0 0 1-.479.16.77.77 0 0 1-.415-.112l-8.728-5.328-8.68 5.328a.77.77 0 0 1-.415.112.75.75 0 0 1-.479-.16L6.028 30a.82.82 0 0 1-.303-.848L8.023 19.2.284 12.576a.785.785 0 0 1-.239-.864l.176-.4a.78.78 0 0 1 .702-.56l10.196-.816L15.028.512A.81.81 0 0 1 15.794 0h.415a.78.78 0 0 1 .75.512l3.973 9.424 10.196.816c.328.02.609.244.702.56zm-9.255 14.384-1.787-7.488 5.856-5.008-7.675-.608L16 5.456V21.68z"/>
    </symbol>
    <symbol id="icon-star" viewBox="0 0 32 32">
      <path stroke-linecap="butt" stroke-linejoin="miter" stroke-miterlimit="4" stroke-width="2" d="M15.436 1.367c.207-.489.922-.489 1.129 0l3.246 7.711a2.61 2.61 0 0 0 2.201 1.584l8.426.666a.586.586 0 0 1 .351 1.033l-6.42 5.434a2.58 2.58 0 0 0-.844 2.574l1.961 8.123c.116.479-.425.932-.916.637l-7.215-4.354a2.63 2.63 0 0 0-2.711 0l-7.215 4.354c-.491.295-1.032-.157-.916-.637l1.961-8.123a2.58 2.58 0 0 0-.844-2.574l-6.42-5.434a.587.587 0 0 1 .352-1.033l8.426-.666a2.61 2.61 0 0 0 2.201-1.584l3.246-7.711z"/>
    </symbol>
    <symbol id="icon-arrow_back" viewBox="0 0 32 32">
      <path d="m9.46 17.136 7.336 7.335q.34.34.344.8c.004.46-.109.574-.336.803q-.34.344-.802.34c-.462-.004-.577-.117-.805-.344L5.93 16.803q-.182-.184-.265-.383c-.083-.199-.083-.273-.083-.422a1.08 1.08 0 0 1 .348-.803l9.275-9.275q.351-.34.806-.34c.455 0 .567.113.794.34q.34.348.34.803c0 .455-.113.569-.34.796l-7.344 7.343h16.27q.488 0 .816.323c.328.323.328.486.328.812s-.109.597-.328.812a1.12 1.12 0 0 1-.816.323H9.461z"/>
    </symbol>
    <symbol id="icon-arrow_forward" viewBox="0 0 32 32">
      <path d="M22.54 17.136H6.27a1.1 1.1 0 0 1-1.135-1.135 1.1 1.1 0 0 1 1.135-1.135h16.27l-7.336-7.335q-.34-.34-.344-.801c-.004-.461.109-.575.336-.803q.34-.343.803-.339c.463.004.577.117.805.344l9.267 9.267q.182.184.265.383c.083.199.083.273.083.422a1.08 1.08 0 0 1-.348.803l-9.275 9.267q-.351.348-.806.348c-.455 0-.567-.117-.794-.35q-.34-.34-.34-.795c0-.455.113-.568.34-.794l7.344-7.343z"/>
    </symbol>
    <symbol id="icon-workshop" viewBox="0 0 96 32">
      <path d="M94.869 28.296a.75.75 0 0 1-.553-.221.83.83 0 0 1-.221-.585v-2.085h-2.228V25.2q-.837 0-1.485-.332c-.648-.332-.769-.527-1.011-.916q-.363-.585-.363-1.359 0-.837.395-1.501.411-.663 1.106-1.043.71-.395 1.627-.395h2.733q.363 0 .585.221c.222.221.221.342.221.585v7.046a.83.83 0 0 1-.237.569q-.205.22-.569.221m-5.609-.19q-.254-.222-.237-.49c.017-.268.074-.342.19-.49l1.927-2.512h2.101l-2.702 3.365q-.268.347-.664.332c-.396-.015-.469-.079-.616-.205zm2.875-4.028h1.959v-2.923h-1.959q-.632 0-1.106.411a1.27 1.27 0 0 0-.474 1.027q0 .664.474 1.074c.474.41.685.411 1.106.411M85.936 28.296a.83.83 0 0 1-.585-.221.83.83 0 0 1-.221-.585v-7.031q0-.363.221-.585a.83.83 0 0 1 .585-.221q.363 0 .569.221c.206.221.205.342.205.585v7.031a.86.86 0 0 1-.205.585q-.205.22-.569.221m-6.494 0a.77.77 0 0 1-.569-.221.86.86 0 0 1-.205-.585v-7.031q0-.363.205-.585a.77.77 0 0 1 .569-.221q.363 0 .585.221c.222.221.221.342.221.585v7.031a.83.83 0 0 1-.221.585q-.22.22-.585.221m.601-3.776v-1.422h5.545v1.422zM68.523 31.993a.8.8 0 0 1-.585-.237.77.77 0 0 1-.221-.569v-7.204q.016-1.248.585-2.243c.569-.995.895-1.185 1.548-1.564q.98-.585 2.212-.585 1.248 0 2.228.585a4.17 4.17 0 0 1 1.548 1.564q.585.995.585 2.243c0 1.248-.179 1.58-.537 2.244a4.1 4.1 0 0 1-1.438 1.564q-.917.569-2.07.569a3.9 3.9 0 0 1-1.722-.379 4.2 4.2 0 0 1-1.327-1.059v4.266a.77.77 0 0 1-.221.569.76.76 0 0 1-.585.237zm3.539-5.056a2.74 2.74 0 0 0 1.438-.379q.632-.395.995-1.058.38-.68.379-1.517 0-.853-.379-1.517a2.67 2.67 0 0 0-.995-1.058 2.66 2.66 0 0 0-1.438-.395 2.71 2.71 0 0 0-2.433 1.453q-.363.663-.363 1.517 0 .837.363 1.517.363.663.995 1.058.648.38 1.438.379M62.125 28.359q-1.312 0-2.338-.553a4.25 4.25 0 0 1-1.596-1.548q-.569-.996-.569-2.275 0-1.296.537-2.275a3.96 3.96 0 0 1 1.517-1.548q.963-.569 2.212-.569 1.232 0 2.117.553.885.537 1.343 1.501.474.948.474 2.196 0 .3-.205.506a.74.74 0 0 1-.521.19h-6.367v-1.264h6.32l-.648.442a3.3 3.3 0 0 0-.316-1.406q-.3-.632-.853-.995c-.553-.363-.816-.363-1.343-.363q-.9 0-1.548.395a2.56 2.56 0 0 0-.964 1.09q-.332.68-.332 1.548c0 .868.132 1.095.395 1.548q.395.68 1.09 1.074c.695.394.995.395 1.596.395q.49 0 .995-.174a3.2 3.2 0 0 0 .837-.427.84.84 0 0 1 .505-.174.67.67 0 0 1 .49.158q.269.237.284.521c.015.284-.074.353-.253.49q-.537.426-1.343.695a4.7 4.7 0 0 1-1.517.269zM54.738 28.312a.83.83 0 0 1-.585-.221.83.83 0 0 1-.221-.585v-4.518q0-.995-.49-1.469-.49-.49-1.28-.49-.822 0-1.359.569-.521.569-.521 1.454h-1.311q0-1.027.442-1.801a3.15 3.15 0 0 1 1.232-1.232q.806-.442 1.833-.442.9 0 1.596.395c.696.395.822.653 1.074 1.169q.395.759.395 1.848v4.518a.83.83 0 0 1-.221.585q-.221.221-.585.221zm-10.537 0a.83.83 0 0 1-.585-.221.82.82 0 0 1-.221-.585v-7.03q0-.363.221-.585a.82.82 0 0 1 .585-.221q.363 0 .585.221c.222.221.221.342.221.585v7.03a.83.83 0 0 1-.221.585q-.221.221-.585.221m5.276 0a.83.83 0 0 1-.585-.221.83.83 0 0 1-.221-.585v-4.518q0-.995-.49-1.469-.49-.49-1.28-.49-.822 0-1.359.569c-.537.569-.537.864-.537 1.454h-.995q0-1.027.411-1.801.41-.79 1.138-1.232c.728-.442 1.038-.442 1.659-.442q.9 0 1.596.395c.696.395.822.653 1.074 1.169q.395.759.395 1.848v4.518a.83.83 0 0 1-.221.585q-.22.221-.585.221zM37.982 28.359q-1.265 0-2.259-.569a4.3 4.3 0 0 1-1.548-1.564q-.553-.995-.553-2.243 0-1.28.553-2.275c.553-.995.874-1.18 1.517-1.548q.964-.569 2.212-.569.932 0 1.706.363.774.348 1.39 1.059.221.252.158.521c-.063.269-.158.337-.348.474a.63.63 0 0 1-.49.111 1 1 0 0 1-.49-.284q-.774-.822-1.927-.821-.806 0-1.422.379-.616.364-.964 1.027c-.348.663-.348.964-.348 1.564q0 .853.348 1.517.363.663.995 1.058.632.38 1.469.379a3.3 3.3 0 0 0 .964-.126q.426-.142.774-.427a.9.9 0 0 1 .521-.221.6.6 0 0 1 .474.142q.269.221.3.506.032.268-.19.49-1.137 1.058-2.844 1.058zM27.087 28.375q-1.09 0-1.959-.458a3.5 3.5 0 0 1-1.359-1.374q-.49-.9-.49-2.212v-3.887q0-.348.221-.569.237-.237.585-.237c.348 0 .421.079.569.237a.74.74 0 0 1 .237.569v3.887q0 .885.332 1.469.331.569.901.853.569.269 1.28.269.68 0 1.201-.269.538-.268.853-.727c.315-.459.316-.648.316-1.027h.995q0 .98-.49 1.77a3.4 3.4 0 0 1-1.311 1.248q-.822.458-1.88.458zm3.491-.079a.83.83 0 0 1-.585-.221.83.83 0 0 1-.221-.585v-7.046q0-.363.221-.585a.83.83 0 0 1 .585-.221q.363 0 .585.221c.222.221.221.342.221.585v7.046a.83.83 0 0 1-.221.585q-.22.22-.585.221m-3.159-9.78q-.806 0-1.453-.269-.648-.285-1.027-.758a1.74 1.74 0 0 1-.379-1.09q0-.332.205-.553c.205-.221.305-.221.506-.221q.316 0 .506.221a.78.78 0 0 1 .205.553q0 .395.411.679.41.269 1.027.269c.617 0 .753-.09 1.027-.269q.411-.285.411-.679 0-.332.205-.553c.205-.221.305-.221.506-.221q.316 0 .506.221a.78.78 0 0 1 .205.553q0 .6-.379 1.09-.38.474-1.027.758-.632.269-1.454.269zM16.551 28.359q-1.153 0-2.07-.569a4.24 4.24 0 0 1-1.453-1.564q-.522-.995-.521-2.243c.001-1.248.19-1.58.569-2.244a4.3 4.3 0 0 1 1.564-1.564q.995-.585 2.228-.585c1.233 0 1.559.195 2.212.585a4.17 4.17 0 0 1 1.548 1.564q.585.995.585 2.244h-.616q0 1.248-.537 2.243a4.1 4.1 0 0 1-1.438 1.564q-.916.569-2.07.569zm.316-1.422a2.74 2.74 0 0 0 1.438-.379q.632-.395.995-1.058a3.2 3.2 0 0 0 .363-1.517q0-.853-.363-1.517a2.67 2.67 0 0 0-.995-1.058 2.66 2.66 0 0 0-1.438-.395q-.79 0-1.438.395a2.8 2.8 0 0 0-1.011 1.058q-.363.663-.363 1.517 0 .837.363 1.517.38.663 1.011 1.058.648.38 1.438.379m3.539 1.375a.83.83 0 0 1-.585-.221.83.83 0 0 1-.221-.585v-2.417l.3-1.675 1.311.569v3.523a.8.8 0 0 1-.237.585.77.77 0 0 1-.569.221zM1.215 28.296a.83.83 0 0 1-.585-.221.83.83 0 0 1-.221-.585v-7.031q0-.363.221-.585a.83.83 0 0 1 .585-.221q.505 0 .853.49l3.27 4.724 3.27-4.724q.348-.49.853-.49.363 0 .585.221c.222.221.221.342.221.585v7.031a.83.83 0 0 1-.221.585q-.22.22-.585.221a.83.83 0 0 1-.585-.221.83.83 0 0 1-.221-.585v-5.751l.411.126-2.907 4.108q-.395.553-.853.553-.458-.016-.837-.553l-2.86-4.108.411-.126v5.751a.83.83 0 0 1-.221.585q-.22.22-.585.221zM64.424 12.56q-1.154 0-2.07-.569a4.25 4.25 0 0 1-1.454-1.564q-.522-.995-.521-2.243c.001-1.248.19-1.58.569-2.243a4.3 4.3 0 0 1 1.564-1.564q.995-.585 2.228-.585c1.233 0 1.559.195 2.212.585A4.17 4.17 0 0 1 68.5 5.941q.585.995.585 2.243h-.616q0 1.248-.537 2.244a4.1 4.1 0 0 1-1.438 1.564q-.916.569-2.07.569zm.316-1.422a2.74 2.74 0 0 0 1.438-.379q.632-.395.995-1.059.363-.679.363-1.517 0-.853-.363-1.517a2.7 2.7 0 0 0-.995-1.059 2.66 2.66 0 0 0-1.438-.395q-.79 0-1.438.395a2.8 2.8 0 0 0-1.011 1.059q-.363.663-.363 1.517 0 .837.363 1.517.38.663 1.011 1.059.648.38 1.438.379m3.539 1.375a.83.83 0 0 1-.585-.221.83.83 0 0 1-.221-.585V9.29l.3-1.675 1.311.569v3.523a.8.8 0 0 1-.237.585.77.77 0 0 1-.569.221zM59.54 12.307q-.205.19-.585.19-.363-.016-.569-.221l-3.839-4.124 3.618-4.045q.206-.221.569-.253.38-.031.585.158a.8.8 0 0 1 .269.506.6.6 0 0 1-.174.49l-2.86 3.065 3.033 3.255q.205.205.205.49 0 .268-.253.49zm-6.257.206a.72.72 0 0 1-.553-.221.86.86 0 0 1-.205-.585V4.661q0-.363.205-.585c.205-.222.321-.221.553-.221q.363 0 .585.221a.76.76 0 0 1 .237.585v2.638h2.022v1.485h-2.022v2.923a.8.8 0 0 1-.237.585q-.221.221-.585.221M45.622 12.56q-1.185 0-2.101-.553a4.04 4.04 0 0 1-1.422-1.548q-.522-.996-.521-2.275 0-1.296.553-2.275a4.04 4.04 0 0 1 1.548-1.548q.98-.569 2.259-.569 1.264 0 2.243.569a3.94 3.94 0 0 1 1.532 1.548q.569.98.569 2.275h-.932q0 1.28-.49 2.275a3.86 3.86 0 0 1-1.311 1.548q-.837.553-1.928.553zm.285 3.523q-1.122 0-2.101-.442c-.979-.442-1.206-.727-1.659-1.295q-.206-.268-.158-.553a.74.74 0 0 1 .316-.458.75.75 0 0 1 .585-.126.8.8 0 0 1 .506.316q.426.537 1.074.837c.648.3.922.3 1.469.3q.759 0 1.39-.363.648-.363 1.027-1.074c.379-.711.379-1.053.379-1.738V9.244l.521-1.39 1.027.332v3.413q0 1.248-.553 2.259a4.2 4.2 0 0 1-1.548 1.627q-.98.6-2.275.6zm.031-4.945q.822 0 1.454-.379c.632-.379.748-.6.98-1.043q.363-.663.363-1.533c0-.87-.121-1.09-.363-1.532q-.347-.68-.98-1.059c-.633-.379-.906-.379-1.454-.379s-1.032.126-1.454.379a2.7 2.7 0 0 0-.995 1.059q-.363.663-.363 1.533c0 .87.121 1.09.363 1.533q.363.663.995 1.043c.632.38.906.379 1.454.379zM35.437 12.56q-1.28 0-2.259-.553a4.2 4.2 0 0 1-1.548-1.548q-.553-.996-.553-2.275 0-1.296.553-2.275a4.04 4.04 0 0 1 1.548-1.548q.98-.569 2.259-.569 1.264 0 2.243.569a3.94 3.94 0 0 1 1.532 1.548q.569.98.569 2.275 0 1.28-.553 2.275a4.1 4.1 0 0 1-1.532 1.548q-.98.553-2.259.553m0-1.422q.822 0 1.453-.379c.631-.379.748-.6.98-1.043q.363-.663.363-1.533c0-.87-.121-1.09-.363-1.532q-.348-.68-.98-1.059c-.632-.379-.906-.379-1.453-.379q-.822 0-1.454.379c-.632.379-.753.606-.995 1.059q-.363.663-.363 1.533c0 .87.121 1.09.363 1.533q.363.663.995 1.043c.632.38.906.379 1.454.379zM25.643 3.871q.237 0 .427.126c.19.126.226.216.3.395l3.255 7.062q.142.316.032.569a.75.75 0 0 1-.379.363q-.348.158-.6.079c-.252-.079-.311-.184-.427-.395l-2.97-6.746h.806l-3.065 6.746a.71.71 0 0 1-.427.395q-.268.079-.6-.079a.9.9 0 0 1-.427-.379q-.11-.237.047-.553l3.27-7.062q.237-.521.758-.521M15.818 12.56q-1.28 0-2.259-.553a4.2 4.2 0 0 1-1.548-1.548q-.553-.996-.553-2.275 0-1.296.553-2.275a4.04 4.04 0 0 1 1.548-1.548q.98-.569 2.259-.569 1.265 0 2.243.569a3.94 3.94 0 0 1 1.532 1.548q.569.98.569 2.275 0 1.28-.553 2.275a4.1 4.1 0 0 1-1.532 1.548q-.98.553-2.259.553m0-1.422q.822 0 1.454-.379c.632-.379.748-.6.98-1.043q.363-.663.363-1.533c0-.87-.121-1.09-.363-1.532q-.348-.68-.98-1.059c-.632-.379-.906-.379-1.454-.379q-.822 0-1.453.379c-.631.379-.753.606-.995 1.059q-.363.663-.363 1.533c0 .87.121 1.09.363 1.533q.363.663.995 1.043c.632.38.906.379 1.453.379zM6.098 12.655a6.1 6.1 0 0 1-2.401-.474 6.2 6.2 0 0 1-1.943-1.343A6.5 6.5 0 0 1 .458 8.816 6.7 6.7 0 0 1 0 6.32q0-1.327.458-2.465a6.3 6.3 0 0 1 1.296-2.006Q2.591.981 3.697.49C4.803-.001 5.235 0 6.098 0q1.217 0 2.085.316.885.316 1.77 1.043a.7.7 0 0 1 .19.205.4.4 0 0 1 .095.205.8.8 0 0 1 .032.237q0 .3-.221.506a.86.86 0 0 1-.506.221q-.3.016-.585-.205a4.6 4.6 0 0 0-1.217-.774q-.616-.269-1.643-.269-.932 0-1.754.379c-.822.379-1.032.6-1.454 1.043a4.9 4.9 0 0 0-.964 1.548 5 5 0 0 0-.348 1.864q0 1.011.348 1.896.348.869.964 1.533.632.663 1.454 1.043a4.3 4.3 0 0 0 1.754.363 4.3 4.3 0 0 0 1.517-.268q.727-.285 1.39-.774.285-.206.553-.174.285.016.474.221.19.189.19.537a.9.9 0 0 1-.063.316.9.9 0 0 1-.19.269 6.3 6.3 0 0 1-1.833 1.027 6 6 0 0 1-2.038.348z"/>
    </symbol>
    <symbol id="icon-Vector" viewBox="0 0 50 32">
      <path d="M42.66 27.918q1.495.775 2.519-.498c1.024-1.273.766-1.734.249-2.656l-3.931-7.415-2.99 8.135 4.152 2.435zm-11.738-2.324h3.902l5.344-13.392q.332-.774.249-1.522c-.083-.748-.36-.876-.914-1.134l-4.596-1.992q-.775-.387-1.55 0c-.775.387-.794.646-.83 1.162l-1.606 16.878zm-16.402 0h3.834l-1.55-16.878q-.056-.83-.747-1.217c-.691-.387-1.006-.24-1.633.055L10.05 9.435q-.72.277-.803 1.245c-.083.968.009 1.227.194 1.743l5.08 13.17zm-7.848 2.324 4.152-2.435-2.99-8.135-3.931 7.692q-.775 1.55.332 2.518c1.107.968 1.55.765 2.436.36zm15.004-2.324H27.6l1.827-20.143q.11-.774-.415-1.3c-.525-.526-.784-.526-1.301-.526h-6.09q-.886 0-1.329.526c-.443.526-.424.784-.387 1.3l1.772 20.143zM5.454 31.598q-2.292 0-3.873-1.635C0 28.328 0 27.564 0 26.037q0-.704.249-1.373c.249-.669.35-.885.553-1.318l5.054-9.787q-.83-2.25-.106-4.454c.724-2.204 1.419-2.507 2.81-3.115l4.595-1.881q.886-.332 1.799-.394c.913-.062 1.176.1 1.702.423q.39-1.81 1.772-2.974C19.81 0 20.413.001 21.621.001h6.09q1.812 0 3.193 1.08c1.381 1.08 1.512 1.665 1.772 2.836q.83-.318 1.723-.257c.893.061 1.169.191 1.723.449l4.651 1.881q2.129.814 2.886 2.983c.757 2.169.454 2.864-.156 4.254L48.53 23.29q.235.635.518 1.256c.283.621.283.837.283 1.269q0 2.444-1.747 4.113c-1.747 1.669-2.567 1.67-4.205 1.67q-.636 0-1.201-.256c-.565-.256-.759-.334-1.145-.49l-3.324-1.634H11.568l-3.145 1.634q-.705.29-1.436.518c-.731.228-.999.228-1.534.228z"/>
    </symbol>
    <symbol id="icon-logo" viewBox="0 0 50 32">
      <path d="M43.118 28.218q1.51.783 2.546-.503c1.036-1.286.774-1.753.252-2.685l-3.973-7.495-3.022 8.222zm-11.864-2.349h3.944l5.401-13.536q.336-.783.252-1.538c-.084-.755-.364-.886-.923-1.147l-4.645-2.014q-.784-.392-1.567 0c-.783.392-.802.653-.839 1.175zm-16.578 0h3.875L16.984 8.81q-.055-.839-.756-1.231c-.701-.392-1.017-.242-1.651.056l-4.421 1.902q-.727.28-.811 1.258c-.084.978.009 1.24.196 1.762zm-7.933 2.349 4.197-2.461-3.022-8.222-3.973 7.775q-.783 1.566.336 2.545c1.119.979 1.567.774 2.462.364zm15.166-2.349h5.988L29.744 5.51q.112-.783-.42-1.314c-.532-.531-.793-.531-1.315-.531h-6.156q-.896 0-1.343.531c-.447.531-.429.792-.392 1.314zM5.512 31.937q-2.316 0-3.914-1.653C0 28.631 0 27.859 0 26.316q0-.711.252-1.388c.252-.677.354-.895.558-1.332l5.108-9.892q-.84-2.275-.107-4.502c.733-2.227 1.434-2.534 2.84-3.148l4.645-1.902q.895-.335 1.819-.398c.924-.063 1.189.101 1.72.427q.395-1.83 1.791-3.006c1.396-1.176 2.007-1.176 3.227-1.176h6.156q1.831 0 3.227 1.092c1.396 1.092 1.528 1.683 1.791 2.866q.84-.322 1.742-.26c.902.062 1.182.193 1.742.454l4.701 1.902q2.151.824 2.917 3.015c.766 2.191.459 2.895-.158 4.3l5.081 10.171q.237.642.524 1.27c.287.628.287.846.287 1.283q0 2.47-1.766 4.157c-1.766 1.687-2.594 1.687-4.25 1.687q-.642 0-1.214-.258c-.572-.258-.767-.337-1.158-.496l-3.36-1.651H11.693l-3.179 1.651q-.712.293-1.451.524c-.739.231-1.01.23-1.55.23z"/>
    </symbol>
  </defs>
</svg>
