<svg xmlns="http://www.w3.org/2000/svg" aria-hidden="true" style="position:absolute;width:0;height:0;overflow:hidden" version="1.1">
  <defs>

    <symbol id="icon-arrow_outward" viewBox="0 0 32 32">
     <path d="M21.72 10.401l-12.794 12.802c-0.232 0.226-0.498 0.34-0.8 0.34s-0.565-0.116-0.792-0.348c-0.232-0.232-0.348-0.499-0.348-0.8s0.116-0.568 0.348-0.8l12.794-12.794h-11.265c-0.326 0-0.598-0.11-0.816-0.329s-0.327-0.49-0.327-0.812c0-0.322 0.109-0.591 0.327-0.806s0.49-0.323 0.816-0.323h14c0.321 0 0.59 0.109 0.808 0.328s0.327 0.488 0.327 0.808v14c0 0.321-0.11 0.59-0.329 0.808s-0.49 0.328-0.812 0.328c-0.328 0-0.599-0.109-0.815-0.328s-0.323-0.487-0.323-0.808v-11.265z"></path>
    </symbol>
    <symbol id="icon-close" viewBox="0 0 32 32">
     <path stroke-linecap="butt" stroke-linejoin="miter" stroke-miterlimit="4" stroke-width="1.333" d="M23.466 7.9c.219 0 .355.065.462.172s.172.242.172.461-.065.355-.172.462L16.923 16l7.005 7.004c.107.107.172.243.172.462s-.065.355-.172.462-.243.172-.462.172-.355-.065-.462-.172L16 16.923l-7.005 7.005c-.107.107-.243.172-.462.172s-.354-.065-.461-.172-.172-.243-.172-.462.065-.355.172-.462L15.076 16 8.072 8.995c-.107-.107-.172-.243-.172-.462s.065-.354.172-.461.242-.172.461-.172.355.065.462.172L16 15.076l7.004-7.004c.107-.107.243-.172.462-.172"/>
    </symbol>
    <symbol id="icon-Facebook" viewBox="0 0 32 32">
     <path d="M29.333 16.405c0-7.409-5.969-13.415-13.333-13.415s-13.333 6.006-13.333 13.415c0 6.696 4.876 12.245 11.25 13.252v-9.374h-3.385v-3.878h3.385v-2.955c0-3.362 1.991-5.219 5.036-5.219 1.459 0 2.985 0.262 2.985 0.262v3.301h-1.681c-1.656 0-2.173 1.034-2.173 2.095v2.516h3.698l-0.591 3.878h-3.107v9.374c6.374-1.006 11.25-6.556 11.25-13.252z"></path>
    </symbol>
    <symbol id="icon-Instagram" viewBox="0 0 32 32">
     <path d="M15.998 6.161c3.206 0 3.585 0.014 4.846 0.071 1.172 0.052 1.804 0.248 2.226 0.412 0.558 0.216 0.961 0.478 1.378 0.895 0.422 0.422 0.679 0.82 0.9 1.378 0.164 0.422 0.361 1.059 0.412 2.226 0.056 1.266 0.071 1.645 0.071 4.847s-0.014 3.585-0.071 4.847c-0.052 1.172-0.248 1.804-0.412 2.227-0.216 0.558-0.478 0.961-0.895 1.377-0.422 0.422-0.82 0.679-1.378 0.9-0.422 0.164-1.060 0.361-2.226 0.412-1.266 0.056-1.645 0.071-4.847 0.071s-3.585-0.014-4.847-0.071c-1.172-0.052-1.804-0.248-2.226-0.412-0.558-0.216-0.961-0.478-1.378-0.895-0.422-0.422-0.679-0.82-0.9-1.378-0.164-0.422-0.361-1.060-0.412-2.226-0.056-1.266-0.071-1.645-0.071-4.847s0.014-3.585 0.071-4.847c0.052-1.172 0.248-1.804 0.412-2.226 0.216-0.558 0.478-0.961 0.895-1.378 0.422-0.422 0.82-0.679 1.378-0.9 0.422-0.164 1.059-0.361 2.226-0.412 1.261-0.056 1.641-0.071 4.847-0.071h0.001zM15.998 4.001c-3.258 0-3.665 0.014-4.945 0.071-1.275 0.056-2.151 0.262-2.91 0.558-0.792 0.309-1.462 0.717-2.127 1.387-0.67 0.666-1.078 1.336-1.387 2.123-0.295 0.764-0.502 1.636-0.558 2.91-0.056 1.285-0.071 1.692-0.071 4.949s0.014 3.665 0.071 4.945c0.056 1.275 0.262 2.151 0.558 2.91 0.31 0.792 0.717 1.462 1.387 2.127 0.665 0.665 1.336 1.078 2.123 1.383 0.764 0.295 1.636 0.502 2.91 0.558 1.279 0.056 1.687 0.071 4.945 0.071s3.666-0.014 4.945-0.071c1.275-0.056 2.151-0.262 2.91-0.558 0.787-0.305 1.458-0.717 2.123-1.383s1.078-1.336 1.383-2.123c0.295-0.764 0.502-1.635 0.558-2.91 0.056-1.279 0.071-1.687 0.071-4.945s-0.014-3.665-0.071-4.945c-0.056-1.275-0.262-2.151-0.558-2.91-0.295-0.797-0.703-1.467-1.373-2.133-0.665-0.665-1.336-1.078-2.123-1.383-0.764-0.295-1.635-0.502-2.91-0.558-1.284-0.061-1.692-0.075-4.949-0.075l-0.001 0.001z"></path>
     <path d="M15.998 9.836c-3.402 0-6.163 2.76-6.163 6.163s2.76 6.163 6.163 6.163c3.403 0 6.163-2.76 6.163-6.163s-2.76-6.163-6.163-6.163zM15.998 19.997c-2.208 0-3.998-1.79-3.998-3.998s1.79-3.998 3.998-3.998c2.208 0 3.998 1.79 3.998 3.998s-1.79 3.998-3.998 3.998z"></path>
     <path d="M23.843 9.592c0 0.795-0.644 1.439-1.439 1.439s-1.439-0.644-1.439-1.439 0.644-1.439 1.439-1.439c0.795 0 1.439 0.644 1.439 1.439z"></path>
    </symbol>
    <symbol id="icon-keyboard_arrow_down" viewBox="0 0 32 32">
      <path d="M16 20.269q-.224 0-.422-.083a.96.96 0 0 1-.381-.265l-6.592-6.592q-.34-.34-.323-.812c.017-.472.13-.586.357-.812q.34-.34.812-.34c.472 0 .586.113.812.34l5.738 5.771 5.771-5.771q.34-.34.796-.323c.456.017.569.13.796.357q.34.34.34.812c0 .472-.113.586-.34.812l-6.559 6.559q-.183.183-.381.265a.9.9 0 0 1-.422.083z"/>
    </symbol>
    <symbol id="icon-menu" viewBox="0 0 32 32">
     <path d="M4.936 24.295q-.481 0-.808-.329c-.327-.329-.327-.493-.327-.82q0-.483.327-.807c.327-.324.488-.323.808-.323h22.127q.481 0 .812.329c.331.329.331.49.331.812q0 .491-.331.814c-.331.323-.492.323-.812.323zm0-7.159q-.481 0-.808-.329c-.327-.329-.327-.49-.327-.812q0-.483.327-.806c.327-.323.488-.323.808-.323h22.127q.481 0 .812.329c.331.329.331.49.331.812q0 .483-.331.806c-.331.323-.492.323-.812.323zm0-7.152q-.481 0-.808-.329c-.327-.329-.327-.493-.327-.82q0-.483.327-.806c.327-.323.488-.323.808-.323h22.127q.481 0 .812.329c.331.329.331.49.331.812q0 .492-.331.815c-.331.323-.492.323-.812.323z"/>
    </symbol>
    <symbol id="icon-Youtube" viewBox="0 0 32 32">
     <path d="M28.791 9.604c-0.152-0.563-0.449-1.077-0.861-1.49s-0.925-0.711-1.489-0.864c-2.088-0.573-10.441-0.583-10.441-0.583s-8.352-0.009-10.441 0.539c-0.563 0.16-1.075 0.462-1.487 0.878s-0.711 0.929-0.867 1.493c-0.551 2.088-0.556 6.419-0.556 6.419s-0.005 4.352 0.541 6.419c0.307 1.143 1.207 2.045 2.351 2.353 2.109 0.573 10.44 0.583 10.44 0.583s8.353 0.009 10.441-0.537c0.563-0.153 1.077-0.45 1.49-0.862s0.712-0.925 0.866-1.488c0.552-2.087 0.556-6.416 0.556-6.416s0.027-4.353-0.543-6.441zM13.328 20.007l0.007-8 6.943 4.007-6.949 3.993z"></path>
    </symbol>
    <symbol id="icon-arrow" viewBox="0 0 32 32">
     <path d="M9.46 17.136l7.336 7.335c0.227 0.227 0.341 0.494 0.344 0.8s-0.109 0.574-0.336 0.803c-0.227 0.229-0.494 0.343-0.802 0.34s-0.577-0.117-0.805-0.344l-9.267-9.267c-0.121-0.123-0.21-0.25-0.265-0.383s-0.083-0.273-0.083-0.422 0.028-0.289 0.083-0.421c0.055-0.132 0.143-0.259 0.265-0.382l9.275-9.275c0.234-0.226 0.503-0.34 0.806-0.34s0.567 0.113 0.794 0.34c0.226 0.232 0.34 0.5 0.34 0.803s-0.113 0.569-0.34 0.796l-7.344 7.343h16.27c0.325 0 0.597 0.108 0.816 0.323s0.328 0.486 0.328 0.812-0.109 0.597-0.328 0.812c-0.219 0.215-0.491 0.323-0.816 0.323h-16.27z"></path>
    </symbol>
    <symbol id="icon-half-star" viewBox="0 0 32 32">
      <path d="M31.829 11.312l0.128 0.4c0.105 0.302 0.017 0.637-0.223 0.848l-7.755 6.64 2.298 9.952c0.078 0.318-0.042 0.652-0.303 0.848l-0.351 0.24c-0.136 0.107-0.305 0.164-0.479 0.16-0.146 0.003-0.29-0.036-0.415-0.112l-8.728-5.328-8.68 5.328c-0.125 0.076-0.269 0.115-0.415 0.112-0.173 0.004-0.342-0.053-0.479-0.16l-0.399-0.24c-0.262-0.196-0.381-0.53-0.303-0.848l2.298-9.952-7.739-6.624c-0.252-0.209-0.348-0.554-0.239-0.864l0.176-0.4c0.093-0.316 0.374-0.54 0.702-0.56l10.196-0.816 3.909-9.424c0.125-0.313 0.43-0.516 0.766-0.512h0.415c0.333-0.007 0.634 0.198 0.75 0.512l3.973 9.424 10.196 0.816c0.328 0.020 0.609 0.244 0.702 0.56zM22.574 25.696l-1.787-7.488 5.856-5.008-7.675-0.608-2.968-7.136v16.224l6.574 4.016z"></path>
    </symbol>
    <symbol id="icon-star" viewBox="0 0 32 32">
      <path stroke-linejoin="miter" stroke-linecap="butt" stroke-miterlimit="4" stroke-width="2" d="M15.436 1.367c0.207-0.489 0.922-0.489 1.129 0l3.246 7.711c0.379 0.899 1.232 1.507 2.201 1.584l8.426 0.666c0.559 0.044 0.741 0.703 0.351 1.033l-6.42 5.434c-0.744 0.63-1.073 1.624-0.844 2.574l1.961 8.123c0.116 0.479-0.425 0.932-0.916 0.637l-7.215-4.354c-0.833-0.502-1.878-0.503-2.711 0l-7.215 4.354c-0.491 0.295-1.032-0.157-0.916-0.637l1.961-8.123c0.229-0.951-0.099-1.944-0.844-2.574l-6.42-5.434c-0.389-0.33-0.207-0.989 0.352-1.033l8.426-0.666c0.97-0.077 1.822-0.684 2.201-1.584l3.246-7.711z"></path>
    </symbol>
    <symbol id="icon-arrow_back" viewBox="0 0 32 32">
      <path d="M9.46 17.136l7.336 7.335c0.227 0.227 0.341 0.494 0.344 0.8s-0.109 0.574-0.336 0.803c-0.227 0.229-0.494 0.343-0.802 0.34s-0.577-0.117-0.805-0.344l-9.267-9.267c-0.121-0.123-0.21-0.25-0.265-0.383s-0.083-0.273-0.083-0.422 0.028-0.289 0.083-0.421c0.055-0.132 0.143-0.259 0.265-0.382l9.275-9.275c0.234-0.226 0.503-0.34 0.806-0.34s0.567 0.113 0.794 0.34c0.226 0.232 0.34 0.5 0.34 0.803s-0.113 0.569-0.34 0.796l-7.344 7.343h16.27c0.325 0 0.597 0.108 0.816 0.323s0.328 0.486 0.328 0.812-0.109 0.597-0.328 0.812c-0.219 0.215-0.491 0.323-0.816 0.323h-16.27z"></path>
    </symbol>
    <symbol id="icon-arrow_forward" viewBox="0 0 32 32">
      <path d="M22.54 17.136h-16.27c-0.326 0-0.597-0.108-0.812-0.323s-0.323-0.486-0.323-0.812 0.108-0.597 0.323-0.812c0.215-0.215 0.486-0.323 0.812-0.323h16.27l-7.336-7.335c-0.227-0.227-0.341-0.494-0.344-0.801s0.109-0.575 0.336-0.803c0.227-0.229 0.495-0.342 0.803-0.339s0.577 0.117 0.805 0.344l9.267 9.267c0.121 0.123 0.21 0.25 0.265 0.383s0.083 0.273 0.083 0.422-0.028 0.289-0.083 0.421c-0.055 0.132-0.143 0.259-0.265 0.382l-9.275 9.267c-0.234 0.232-0.503 0.348-0.806 0.348s-0.567-0.117-0.794-0.35c-0.226-0.227-0.34-0.492-0.34-0.795s0.113-0.568 0.34-0.794l7.344-7.343z"></path>
    </symbol>
    <svg width="48" height="31" viewBox="0 0 48 31" fill="none" xmlns="http://www.w3.org/2000/svg">
      <path d="M41.3268 27.0456C42.2923 27.546 43.1058 27.3851 43.7673 26.5631C44.4288 25.7411 44.5093 24.8834 44.0086 23.9899L40.2005 16.8063L37.3041 24.6868L41.3268 27.0456ZM29.9559 24.7941H33.7362L38.9132 11.8207C39.1277 11.3204 39.2082 10.829 39.1546 10.3465C39.1009 9.86401 38.8059 9.49768 38.2696 9.24751L33.8177 7.3176C33.3171 7.06742 32.8165 7.06742 32.3159 7.3176C31.8153 7.56777 31.5471 7.94303 31.5114 8.44338L29.9559 24.7941ZM14.0667 24.7941H17.7805L16.2786 8.44338C16.2429 7.90729 16.0015 7.51416 15.5545 7.26399C15.1076 7.01381 14.5802 7.03168 13.9723 7.3176L9.735 9.14029C9.27015 9.31899 9.01091 9.72105 8.95727 10.3465C8.90364 10.9719 8.96621 11.5348 9.145 12.0352L14.0667 24.7941ZM6.46318 27.0456L10.4859 24.6868L7.58955 16.8063L3.78136 24.258C3.28076 25.2587 3.38803 26.0717 4.10318 26.6972C4.81833 27.3226 5.605 27.4387 6.46318 27.0456ZM20.9986 24.7941H26.7377L28.5077 5.28046C28.5792 4.78011 28.4452 4.36018 28.1055 4.02066C27.7658 3.68113 27.3456 3.51137 26.845 3.51137H20.945C20.3729 3.51137 19.9438 3.68113 19.6577 4.02066C19.3717 4.36018 19.2465 4.78011 19.2823 5.28046L20.9986 24.7941ZM5.28318 30.6106C3.80318 30.6106 2.55255 30.0826 1.53132 29.0265C0.510439 27.97 0 26.7022 0 25.2229C0 24.7683 0.0804546 24.3248 0.241364 23.8924C0.402273 23.4603 0.580703 23.0348 0.776655 22.6159L5.67258 13.1352C5.13622 11.6817 5.10189 10.2434 5.5696 8.82025C6.03695 7.39747 6.9443 6.39159 8.29165 5.80261L12.7435 3.97991C13.3156 3.76548 13.8966 3.63825 14.4866 3.59822C15.0766 3.55819 15.6262 3.69472 16.1354 4.00779C16.3872 2.83841 16.9593 1.87809 17.8518 1.12686C18.7439 0.37562 19.775 0 20.945 0H26.845C28.015 0 29.0461 0.348815 29.9382 1.04644C30.8307 1.74407 31.4028 2.65971 31.6546 3.79336C32.1909 3.5875 32.7473 3.50458 33.3237 3.54461C33.9002 3.58464 34.4565 3.72974 34.9929 3.97991L39.4984 5.80261C40.8729 6.32869 41.8049 7.29204 42.2944 8.69266C42.7843 10.0936 42.7339 11.4673 42.1432 12.8136L47.0134 22.5623C47.165 22.9726 47.3323 23.3782 47.5154 23.7792C47.6985 24.1799 47.79 24.5896 47.79 25.0085C47.79 26.5864 47.2259 27.9146 46.0978 28.9932C44.9693 30.0715 43.6114 30.6106 42.0241 30.6106C41.6136 30.6106 41.2256 30.528 40.8602 30.3629C40.4951 30.1978 40.1252 30.0395 39.7505 29.888L36.5301 28.3054H11.2062L8.1597 29.888C7.70486 30.0752 7.24127 30.2425 6.76891 30.3897C6.29619 30.537 5.80095 30.6106 5.28318 30.6106Z" fill="#080C0C"/>
    </svg>
    <symbol id="icon-workshop" viewBox="0 0 96 32">
      <path d="M94.869 28.296c-0.221 0-0.406-0.074-0.553-0.221-0.147-0.158-0.221-0.353-0.221-0.585v-2.085h-2.228v-0.205c-0.558 0-1.053-0.111-1.485-0.332s-0.769-0.527-1.011-0.916c-0.242-0.39-0.363-0.843-0.363-1.359 0-0.558 0.132-1.058 0.395-1.501 0.274-0.442 0.643-0.79 1.106-1.043 0.474-0.263 1.016-0.395 1.627-0.395h2.733c0.242 0 0.437 0.074 0.585 0.221s0.221 0.342 0.221 0.585v7.046c-0.011 0.232-0.090 0.421-0.237 0.569-0.137 0.147-0.326 0.221-0.569 0.221zM89.26 28.106c-0.169-0.148-0.248-0.311-0.237-0.49s0.074-0.342 0.19-0.49l1.927-2.512h2.101l-2.702 3.365c-0.179 0.232-0.4 0.342-0.664 0.332s-0.469-0.079-0.616-0.205zM92.135 24.078h1.959v-2.923h-1.959c-0.421 0-0.79 0.137-1.106 0.411-0.316 0.263-0.474 0.606-0.474 1.027 0 0.442 0.158 0.801 0.474 1.074s0.685 0.411 1.106 0.411z"></path>
      <path d="M85.936 28.296c-0.232 0-0.427-0.074-0.585-0.221-0.147-0.158-0.221-0.353-0.221-0.585v-7.031c0-0.242 0.074-0.437 0.221-0.585 0.158-0.147 0.353-0.221 0.585-0.221 0.242 0 0.432 0.074 0.569 0.221s0.205 0.342 0.205 0.585v7.031c0 0.232-0.068 0.427-0.205 0.585-0.137 0.147-0.326 0.221-0.569 0.221zM79.442 28.296c-0.232 0-0.421-0.074-0.569-0.221-0.137-0.158-0.205-0.353-0.205-0.585v-7.031c0-0.242 0.068-0.437 0.205-0.585 0.147-0.147 0.337-0.221 0.569-0.221 0.242 0 0.437 0.074 0.585 0.221s0.221 0.342 0.221 0.585v7.031c0 0.232-0.074 0.427-0.221 0.585-0.147 0.147-0.342 0.221-0.585 0.221zM80.043 24.52v-1.422h5.545v1.422h-5.545z"></path>
      <path d="M68.523 31.993c-0.232 0-0.427-0.079-0.585-0.237-0.147-0.148-0.221-0.337-0.221-0.569v-7.204c0.011-0.832 0.205-1.58 0.585-2.243s0.895-1.185 1.548-1.564c0.653-0.39 1.39-0.585 2.212-0.585 0.832 0 1.575 0.195 2.228 0.585 0.653 0.379 1.169 0.901 1.548 1.564 0.39 0.664 0.585 1.411 0.585 2.243s-0.179 1.58-0.537 2.244c-0.348 0.653-0.827 1.174-1.438 1.564-0.611 0.379-1.301 0.569-2.070 0.569-0.621 0-1.195-0.126-1.722-0.379-0.516-0.263-0.958-0.616-1.327-1.059v4.266c0 0.232-0.074 0.421-0.221 0.569-0.147 0.158-0.342 0.237-0.585 0.237zM72.062 26.937c0.537 0 1.016-0.126 1.438-0.379 0.421-0.263 0.753-0.616 0.995-1.058 0.253-0.453 0.379-0.959 0.379-1.517 0-0.569-0.126-1.074-0.379-1.517-0.242-0.453-0.574-0.806-0.995-1.058-0.421-0.263-0.901-0.395-1.438-0.395-0.527 0-1.006 0.132-1.438 0.395-0.421 0.253-0.753 0.606-0.995 1.058-0.242 0.442-0.363 0.948-0.363 1.517 0 0.558 0.121 1.064 0.363 1.517 0.242 0.442 0.574 0.795 0.995 1.058 0.432 0.253 0.911 0.379 1.438 0.379z"></path>
      <path d="M62.125 28.359c-0.874 0-1.654-0.184-2.338-0.553-0.674-0.379-1.206-0.895-1.596-1.548-0.379-0.664-0.569-1.422-0.569-2.275 0-0.864 0.179-1.622 0.537-2.275 0.369-0.664 0.874-1.18 1.517-1.548 0.642-0.379 1.38-0.569 2.212-0.569 0.821 0 1.527 0.184 2.117 0.553 0.59 0.358 1.037 0.858 1.343 1.501 0.316 0.632 0.474 1.364 0.474 2.196 0 0.2-0.068 0.369-0.205 0.506-0.137 0.126-0.311 0.19-0.521 0.19h-6.367v-1.264h6.32l-0.648 0.442c-0.011-0.527-0.116-0.995-0.316-1.406-0.2-0.421-0.485-0.753-0.853-0.995s-0.816-0.363-1.343-0.363c-0.6 0-1.117 0.132-1.548 0.395-0.421 0.263-0.742 0.627-0.964 1.090-0.221 0.453-0.332 0.969-0.332 1.548s0.132 1.095 0.395 1.548c0.263 0.453 0.627 0.811 1.090 1.074s0.995 0.395 1.596 0.395c0.327 0 0.658-0.058 0.995-0.174 0.348-0.126 0.627-0.269 0.837-0.427 0.158-0.116 0.326-0.174 0.505-0.174 0.19-0.011 0.353 0.042 0.49 0.158 0.179 0.158 0.274 0.332 0.284 0.521s-0.074 0.353-0.253 0.49c-0.358 0.284-0.806 0.516-1.343 0.695-0.527 0.179-1.032 0.269-1.517 0.269z"></path>
      <path d="M54.738 28.312c-0.232 0-0.427-0.074-0.585-0.221-0.147-0.158-0.221-0.353-0.221-0.585v-4.518c0-0.664-0.163-1.153-0.49-1.469-0.327-0.326-0.753-0.49-1.28-0.49-0.548 0-1.001 0.19-1.359 0.569-0.348 0.379-0.521 0.864-0.521 1.454h-1.311c0-0.685 0.147-1.285 0.442-1.801 0.295-0.527 0.706-0.937 1.232-1.232 0.537-0.295 1.148-0.442 1.833-0.442 0.6 0 1.132 0.132 1.596 0.395s0.822 0.653 1.074 1.169c0.263 0.506 0.395 1.122 0.395 1.848v4.518c0 0.232-0.074 0.427-0.221 0.585-0.148 0.148-0.342 0.221-0.585 0.221zM44.201 28.312c-0.232 0-0.427-0.074-0.585-0.221-0.148-0.158-0.221-0.353-0.221-0.585v-7.030c0-0.242 0.074-0.437 0.221-0.585 0.158-0.148 0.353-0.221 0.585-0.221 0.242 0 0.437 0.074 0.585 0.221s0.221 0.342 0.221 0.585v7.030c0 0.232-0.074 0.427-0.221 0.585-0.148 0.148-0.342 0.221-0.585 0.221zM49.477 28.312c-0.232 0-0.427-0.074-0.585-0.221-0.147-0.158-0.221-0.353-0.221-0.585v-4.518c0-0.664-0.163-1.153-0.49-1.469-0.327-0.326-0.753-0.49-1.28-0.49-0.548 0-1.001 0.19-1.359 0.569s-0.537 0.864-0.537 1.454h-0.995c0-0.685 0.137-1.285 0.411-1.801 0.274-0.527 0.653-0.937 1.138-1.232s1.038-0.442 1.659-0.442c0.6 0 1.132 0.132 1.596 0.395s0.822 0.653 1.074 1.169c0.263 0.506 0.395 1.122 0.395 1.848v4.518c0 0.232-0.074 0.427-0.221 0.585-0.147 0.148-0.342 0.221-0.585 0.221z"></path>
      <path d="M37.982 28.359c-0.843 0-1.596-0.19-2.259-0.569-0.653-0.39-1.169-0.911-1.548-1.564-0.369-0.664-0.553-1.411-0.553-2.243 0-0.853 0.184-1.612 0.553-2.275s0.874-1.18 1.517-1.548c0.642-0.379 1.38-0.569 2.212-0.569 0.621 0 1.19 0.121 1.706 0.363 0.516 0.232 0.98 0.585 1.39 1.059 0.148 0.168 0.2 0.342 0.158 0.521s-0.158 0.337-0.348 0.474c-0.148 0.105-0.311 0.142-0.49 0.111-0.179-0.042-0.342-0.137-0.49-0.284-0.516-0.548-1.159-0.821-1.927-0.821-0.537 0-1.011 0.126-1.422 0.379-0.411 0.242-0.732 0.585-0.964 1.027s-0.348 0.964-0.348 1.564c0 0.569 0.116 1.074 0.348 1.517 0.242 0.442 0.574 0.795 0.995 1.058 0.421 0.253 0.911 0.379 1.469 0.379 0.369 0 0.69-0.042 0.964-0.126 0.284-0.095 0.542-0.237 0.774-0.427 0.169-0.137 0.342-0.211 0.521-0.221 0.179-0.021 0.337 0.026 0.474 0.142 0.179 0.148 0.279 0.316 0.3 0.506 0.021 0.179-0.042 0.342-0.19 0.49-0.758 0.706-1.706 1.058-2.844 1.058z"></path>
      <path d="M27.087 28.375c-0.727 0-1.38-0.153-1.959-0.458-0.569-0.316-1.022-0.774-1.359-1.374-0.326-0.6-0.49-1.338-0.49-2.212v-3.887c0-0.232 0.074-0.421 0.221-0.569 0.158-0.158 0.353-0.237 0.585-0.237s0.421 0.079 0.569 0.237c0.158 0.148 0.237 0.337 0.237 0.569v3.887c0 0.59 0.111 1.080 0.332 1.469 0.221 0.379 0.521 0.664 0.901 0.853 0.379 0.179 0.806 0.269 1.28 0.269 0.453 0 0.853-0.090 1.201-0.269 0.358-0.179 0.643-0.421 0.853-0.727s0.316-0.648 0.316-1.027h0.995c0 0.653-0.163 1.243-0.49 1.77-0.316 0.527-0.753 0.943-1.311 1.248-0.548 0.305-1.174 0.458-1.88 0.458zM30.578 28.296c-0.232 0-0.427-0.074-0.585-0.221-0.147-0.158-0.221-0.353-0.221-0.585v-7.046c0-0.242 0.074-0.437 0.221-0.585 0.158-0.147 0.353-0.221 0.585-0.221 0.242 0 0.437 0.074 0.585 0.221s0.221 0.342 0.221 0.585v7.046c0 0.232-0.074 0.427-0.221 0.585-0.147 0.147-0.342 0.221-0.585 0.221zM27.419 18.516c-0.537 0-1.022-0.090-1.453-0.269-0.432-0.19-0.774-0.442-1.027-0.758-0.253-0.326-0.379-0.69-0.379-1.090 0-0.221 0.068-0.406 0.205-0.553s0.305-0.221 0.506-0.221c0.211 0 0.379 0.074 0.506 0.221 0.137 0.147 0.205 0.332 0.205 0.553 0 0.263 0.137 0.49 0.411 0.679 0.274 0.179 0.616 0.269 1.027 0.269s0.753-0.090 1.027-0.269c0.274-0.19 0.411-0.416 0.411-0.679 0-0.221 0.069-0.406 0.205-0.553s0.305-0.221 0.506-0.221c0.211 0 0.379 0.074 0.506 0.221 0.137 0.147 0.205 0.332 0.205 0.553 0 0.4-0.126 0.764-0.379 1.090-0.253 0.316-0.595 0.569-1.027 0.758-0.421 0.179-0.906 0.269-1.454 0.269z"></path>
      <path d="M16.551 28.359c-0.769 0-1.459-0.19-2.070-0.569-0.611-0.39-1.095-0.911-1.453-1.564-0.348-0.664-0.521-1.411-0.521-2.243s0.19-1.58 0.569-2.244c0.39-0.664 0.911-1.185 1.564-1.564 0.664-0.39 1.406-0.585 2.228-0.585s1.559 0.195 2.212 0.585c0.653 0.379 1.169 0.901 1.548 1.564 0.39 0.664 0.585 1.411 0.585 2.244h-0.616c0 0.832-0.179 1.58-0.537 2.243-0.348 0.653-0.827 1.174-1.438 1.564-0.611 0.379-1.301 0.569-2.070 0.569zM16.867 26.937c0.537 0 1.016-0.126 1.438-0.379 0.421-0.263 0.753-0.616 0.995-1.058 0.242-0.453 0.363-0.959 0.363-1.517 0-0.569-0.121-1.074-0.363-1.517-0.242-0.453-0.574-0.806-0.995-1.058-0.421-0.263-0.901-0.395-1.438-0.395-0.527 0-1.006 0.132-1.438 0.395-0.421 0.253-0.758 0.606-1.011 1.058-0.242 0.442-0.363 0.948-0.363 1.517 0 0.558 0.121 1.064 0.363 1.517 0.253 0.442 0.59 0.795 1.011 1.058 0.432 0.253 0.911 0.379 1.438 0.379zM20.406 28.312c-0.232 0-0.427-0.074-0.585-0.221-0.147-0.158-0.221-0.353-0.221-0.585v-2.417l0.3-1.675 1.311 0.569v3.523c0 0.232-0.079 0.427-0.237 0.585-0.147 0.148-0.337 0.221-0.569 0.221z"></path>
      <path d="M1.215 28.296c-0.232 0-0.427-0.074-0.585-0.221-0.147-0.158-0.221-0.353-0.221-0.585v-7.031c0-0.242 0.074-0.437 0.221-0.585 0.158-0.147 0.353-0.221 0.585-0.221 0.337 0 0.621 0.163 0.853 0.49l3.27 4.724 3.27-4.724c0.232-0.326 0.516-0.49 0.853-0.49 0.242 0 0.437 0.074 0.585 0.221s0.221 0.342 0.221 0.585v7.031c0 0.232-0.074 0.427-0.221 0.585-0.147 0.147-0.342 0.221-0.585 0.221-0.232 0-0.427-0.074-0.585-0.221-0.147-0.158-0.221-0.353-0.221-0.585v-5.751l0.411 0.126-2.907 4.108c-0.263 0.369-0.548 0.553-0.853 0.553-0.305-0.011-0.585-0.195-0.837-0.553l-2.86-4.108 0.411-0.126v5.751c0 0.232-0.074 0.427-0.221 0.585-0.147 0.147-0.342 0.221-0.585 0.221z"></path>
      <path d="M64.424 12.56c-0.769 0-1.459-0.19-2.070-0.569-0.611-0.39-1.095-0.911-1.454-1.564-0.348-0.664-0.521-1.411-0.521-2.243s0.19-1.58 0.569-2.243c0.39-0.664 0.911-1.185 1.564-1.564 0.664-0.39 1.406-0.585 2.228-0.585s1.559 0.195 2.212 0.585c0.653 0.379 1.169 0.901 1.548 1.564 0.39 0.664 0.585 1.411 0.585 2.243h-0.616c0 0.832-0.179 1.58-0.537 2.244-0.348 0.653-0.827 1.174-1.438 1.564-0.611 0.379-1.301 0.569-2.070 0.569zM64.74 11.138c0.537 0 1.016-0.126 1.438-0.379 0.421-0.263 0.753-0.616 0.995-1.059 0.242-0.453 0.363-0.958 0.363-1.517 0-0.569-0.121-1.074-0.363-1.517-0.242-0.453-0.574-0.806-0.995-1.059-0.421-0.263-0.901-0.395-1.438-0.395-0.527 0-1.006 0.132-1.438 0.395-0.421 0.253-0.758 0.606-1.011 1.059-0.242 0.442-0.363 0.948-0.363 1.517 0 0.558 0.121 1.064 0.363 1.517 0.253 0.442 0.59 0.795 1.011 1.059 0.432 0.253 0.911 0.379 1.438 0.379zM68.279 12.513c-0.232 0-0.427-0.074-0.585-0.221-0.147-0.158-0.221-0.353-0.221-0.585v-2.417l0.3-1.675 1.311 0.569v3.523c0 0.232-0.079 0.427-0.237 0.585-0.147 0.147-0.337 0.221-0.569 0.221z"></path>
      <path d="M59.54 12.307c-0.137 0.126-0.332 0.19-0.585 0.19-0.242-0.011-0.432-0.084-0.569-0.221l-3.839-4.124 3.618-4.045c0.137-0.147 0.327-0.232 0.569-0.253 0.253-0.021 0.448 0.032 0.585 0.158 0.158 0.147 0.248 0.316 0.269 0.506 0.021 0.179-0.037 0.342-0.174 0.49l-2.86 3.065 3.033 3.255c0.137 0.137 0.205 0.3 0.205 0.49 0 0.179-0.084 0.342-0.253 0.49zM53.283 12.513c-0.232 0-0.416-0.074-0.553-0.221-0.137-0.158-0.205-0.353-0.205-0.585v-7.046c0-0.242 0.069-0.437 0.205-0.585s0.321-0.221 0.553-0.221c0.242 0 0.437 0.074 0.585 0.221 0.158 0.147 0.237 0.342 0.237 0.585v2.638h2.022v1.485h-2.022v2.923c0 0.232-0.079 0.427-0.237 0.585-0.148 0.148-0.342 0.221-0.585 0.221z"></path>
      <path d="M45.622 12.56c-0.79 0-1.49-0.184-2.101-0.553-0.6-0.379-1.074-0.895-1.422-1.548-0.348-0.664-0.521-1.422-0.521-2.275 0-0.864 0.184-1.622 0.553-2.275 0.379-0.664 0.895-1.18 1.548-1.548 0.653-0.379 1.406-0.569 2.259-0.569 0.843 0 1.59 0.19 2.243 0.569 0.653 0.369 1.164 0.885 1.532 1.548 0.379 0.653 0.569 1.411 0.569 2.275h-0.932c0 0.853-0.163 1.611-0.49 2.275-0.316 0.653-0.753 1.169-1.311 1.548-0.558 0.369-1.201 0.553-1.928 0.553zM45.907 16.083c-0.748 0-1.448-0.148-2.101-0.442s-1.206-0.727-1.659-1.295c-0.137-0.179-0.19-0.363-0.158-0.553 0.042-0.19 0.148-0.342 0.316-0.458 0.19-0.126 0.384-0.168 0.585-0.126 0.211 0.042 0.379 0.148 0.506 0.316 0.284 0.358 0.642 0.637 1.074 0.837s0.922 0.3 1.469 0.3c0.506 0 0.969-0.121 1.39-0.363 0.432-0.242 0.774-0.6 1.027-1.074s0.379-1.053 0.379-1.738v-2.243l0.521-1.39 1.027 0.332v3.413c0 0.832-0.184 1.585-0.553 2.259-0.369 0.685-0.885 1.227-1.548 1.627-0.653 0.4-1.411 0.6-2.275 0.6zM45.938 11.138c0.548 0 1.032-0.126 1.454-0.379s0.748-0.6 0.98-1.043c0.242-0.442 0.363-0.953 0.363-1.533s-0.121-1.090-0.363-1.532c-0.232-0.453-0.558-0.806-0.98-1.059s-0.906-0.379-1.454-0.379-1.032 0.126-1.454 0.379c-0.421 0.253-0.753 0.606-0.995 1.059-0.242 0.442-0.363 0.953-0.363 1.533s0.121 1.090 0.363 1.533c0.242 0.442 0.574 0.79 0.995 1.043s0.906 0.379 1.454 0.379z"></path>
      <path d="M35.437 12.56c-0.853 0-1.606-0.184-2.259-0.553-0.653-0.379-1.169-0.895-1.548-1.548-0.369-0.664-0.553-1.422-0.553-2.275 0-0.864 0.184-1.622 0.553-2.275 0.379-0.664 0.895-1.18 1.548-1.548 0.653-0.379 1.406-0.569 2.259-0.569 0.843 0 1.59 0.19 2.243 0.569 0.653 0.369 1.164 0.885 1.532 1.548 0.379 0.653 0.569 1.411 0.569 2.275 0 0.853-0.184 1.611-0.553 2.275-0.369 0.653-0.879 1.169-1.532 1.548-0.653 0.369-1.406 0.553-2.259 0.553zM35.437 11.138c0.548 0 1.032-0.126 1.453-0.379s0.748-0.6 0.98-1.043c0.242-0.442 0.363-0.953 0.363-1.533s-0.121-1.090-0.363-1.532c-0.232-0.453-0.558-0.806-0.98-1.059s-0.906-0.379-1.453-0.379c-0.548 0-1.032 0.126-1.454 0.379s-0.753 0.606-0.995 1.059c-0.242 0.442-0.363 0.953-0.363 1.533s0.121 1.090 0.363 1.533c0.242 0.442 0.574 0.79 0.995 1.043s0.906 0.379 1.454 0.379z"></path>
      <path d="M25.643 3.871c0.158 0 0.3 0.042 0.427 0.126s0.226 0.216 0.3 0.395l3.255 7.062c0.095 0.211 0.105 0.4 0.032 0.569-0.074 0.158-0.2 0.279-0.379 0.363-0.232 0.105-0.432 0.132-0.6 0.079s-0.311-0.184-0.427-0.395l-2.97-6.746h0.806l-3.065 6.746c-0.095 0.2-0.237 0.332-0.427 0.395-0.179 0.053-0.379 0.026-0.6-0.079-0.2-0.095-0.342-0.221-0.427-0.379-0.074-0.158-0.058-0.342 0.047-0.553l3.27-7.062c0.158-0.348 0.411-0.521 0.758-0.521z"></path>
      <path d="M15.818 12.56c-0.853 0-1.606-0.184-2.259-0.553-0.653-0.379-1.169-0.895-1.548-1.548-0.369-0.664-0.553-1.422-0.553-2.275 0-0.864 0.184-1.622 0.553-2.275 0.379-0.664 0.895-1.18 1.548-1.548 0.653-0.379 1.406-0.569 2.259-0.569 0.843 0 1.591 0.19 2.243 0.569 0.653 0.369 1.164 0.885 1.532 1.548 0.379 0.653 0.569 1.411 0.569 2.275 0 0.853-0.184 1.611-0.553 2.275-0.369 0.653-0.879 1.169-1.532 1.548-0.653 0.369-1.406 0.553-2.259 0.553zM15.818 11.138c0.548 0 1.032-0.126 1.454-0.379s0.748-0.6 0.98-1.043c0.242-0.442 0.363-0.953 0.363-1.533s-0.121-1.090-0.363-1.532c-0.232-0.453-0.558-0.806-0.98-1.059s-0.906-0.379-1.454-0.379c-0.548 0-1.032 0.126-1.453 0.379s-0.753 0.606-0.995 1.059c-0.242 0.442-0.363 0.953-0.363 1.533s0.121 1.090 0.363 1.533c0.242 0.442 0.574 0.79 0.995 1.043s0.906 0.379 1.453 0.379z"></path>
      <path d="M6.098 12.655c-0.853 0-1.654-0.158-2.401-0.474-0.737-0.326-1.385-0.774-1.943-1.343-0.548-0.579-0.98-1.253-1.296-2.022-0.305-0.769-0.458-1.601-0.458-2.496 0-0.885 0.153-1.706 0.458-2.465 0.316-0.769 0.748-1.438 1.296-2.006 0.558-0.579 1.206-1.032 1.943-1.359s1.538-0.49 2.401-0.49c0.811 0 1.506 0.105 2.085 0.316 0.59 0.211 1.18 0.558 1.77 1.043 0.084 0.063 0.147 0.132 0.19 0.205 0.053 0.063 0.084 0.132 0.095 0.205 0.021 0.063 0.032 0.142 0.032 0.237 0 0.2-0.074 0.369-0.221 0.506-0.137 0.126-0.305 0.2-0.506 0.221-0.2 0.011-0.395-0.058-0.585-0.205-0.39-0.337-0.795-0.595-1.217-0.774-0.411-0.179-0.958-0.269-1.643-0.269-0.621 0-1.206 0.126-1.754 0.379s-1.032 0.6-1.454 1.043c-0.411 0.442-0.732 0.958-0.964 1.548-0.232 0.579-0.348 1.201-0.348 1.864 0 0.674 0.116 1.306 0.348 1.896 0.232 0.579 0.553 1.090 0.964 1.533 0.421 0.442 0.906 0.79 1.454 1.043 0.548 0.242 1.132 0.363 1.754 0.363 0.537 0 1.043-0.089 1.517-0.268 0.484-0.19 0.948-0.448 1.39-0.774 0.19-0.137 0.374-0.195 0.553-0.174 0.19 0.011 0.348 0.084 0.474 0.221 0.126 0.126 0.19 0.305 0.19 0.537 0 0.105-0.021 0.211-0.063 0.316-0.042 0.095-0.105 0.184-0.19 0.269-0.569 0.453-1.18 0.795-1.833 1.027-0.643 0.232-1.322 0.348-2.038 0.348z"></path>
    </symbol>
    <symbol id="icon-Vector" viewBox="0 0 50 32">
      <path d="M42.66 27.918c0.997 0.517 1.836 0.35 2.519-0.498s0.766-1.734 0.249-2.656l-3.931-7.415-2.99 8.135 4.152 2.435zM30.922 25.594h3.902l5.344-13.392c0.221-0.516 0.305-1.024 0.249-1.522s-0.36-0.876-0.914-1.134l-4.596-1.992c-0.517-0.258-1.033-0.258-1.55 0s-0.794 0.646-0.83 1.162l-1.606 16.878zM14.52 25.594h3.834l-1.55-16.878c-0.037-0.553-0.286-0.959-0.747-1.217s-1.006-0.24-1.633 0.055l-4.374 1.881c-0.48 0.184-0.747 0.6-0.803 1.245s0.009 1.227 0.194 1.743l5.080 13.17zM6.672 27.918l4.152-2.435-2.99-8.135-3.931 7.692c-0.517 1.033-0.406 1.872 0.332 2.518s1.55 0.765 2.436 0.36zM21.676 25.594h5.924l1.827-20.143c0.074-0.516-0.065-0.95-0.415-1.3s-0.784-0.526-1.301-0.526h-6.090c-0.591 0-1.034 0.175-1.329 0.526s-0.424 0.784-0.387 1.3l1.772 20.143zM5.454 31.598c-1.528 0-2.819-0.545-3.873-1.635s-1.581-2.399-1.581-3.926c0-0.469 0.083-0.927 0.249-1.373s0.35-0.885 0.553-1.318l5.054-9.787c-0.554-1.5-0.589-2.985-0.106-4.454s1.419-2.507 2.81-3.115l4.595-1.881c0.591-0.221 1.19-0.353 1.799-0.394s1.176 0.1 1.702 0.423c0.26-1.207 0.85-2.198 1.772-2.974s1.985-1.163 3.193-1.163h6.090c1.208 0 2.272 0.36 3.193 1.080s1.512 1.665 1.772 2.836c0.554-0.212 1.128-0.298 1.723-0.257s1.169 0.191 1.723 0.449l4.651 1.881c1.419 0.543 2.381 1.537 2.886 2.983s0.454 2.864-0.156 4.254l5.027 10.063c0.157 0.424 0.329 0.842 0.518 1.256s0.283 0.837 0.283 1.269c0 1.629-0.582 3-1.747 4.113s-2.567 1.67-4.205 1.67c-0.424 0-0.824-0.085-1.201-0.256s-0.759-0.334-1.145-0.49l-3.324-1.634h-26.141l-3.145 1.634c-0.47 0.193-0.948 0.366-1.436 0.518s-0.999 0.228-1.534 0.228z"></path>
    </symbol>
    <symbol id="icon-logo" viewBox="0 0 50 32">
      <path d="M43.118 28.218c1.007 0.522 1.856 0.354 2.546-0.503s0.774-1.753 0.252-2.685l-3.973-7.495-3.022 8.222 4.197 2.461zM31.254 25.869h3.944l5.401-13.536c0.224-0.522 0.308-1.035 0.252-1.538s-0.364-0.886-0.923-1.147l-4.645-2.014c-0.522-0.261-1.045-0.261-1.567 0s-0.802 0.653-0.839 1.175l-1.623 17.059zM14.676 25.869h3.875l-1.567-17.059c-0.037-0.559-0.289-0.97-0.756-1.231s-1.017-0.242-1.651 0.056l-4.421 1.902c-0.485 0.186-0.755 0.606-0.811 1.258s0.009 1.24 0.196 1.762l5.135 13.312zM6.743 28.218l4.197-2.461-3.022-8.222-3.973 7.775c-0.522 1.044-0.41 1.892 0.336 2.545s1.567 0.774 2.462 0.364zM21.909 25.869h5.988l1.847-20.359c0.075-0.522-0.065-0.96-0.42-1.314s-0.793-0.531-1.315-0.531h-6.156c-0.597 0-1.045 0.177-1.343 0.531s-0.429 0.792-0.392 1.314l1.791 20.359zM5.512 31.937c-1.544 0-2.849-0.551-3.914-1.653s-1.598-2.425-1.598-3.968c0-0.474 0.084-0.937 0.252-1.388s0.354-0.895 0.558-1.332l5.108-9.892c-0.56-1.517-0.595-3.017-0.107-4.502s1.434-2.534 2.84-3.148l4.645-1.902c0.597-0.224 1.203-0.356 1.819-0.398s1.189 0.101 1.72 0.427c0.263-1.22 0.86-2.222 1.791-3.006s2.007-1.176 3.227-1.176h6.156c1.221 0 2.296 0.364 3.227 1.092s1.528 1.683 1.791 2.866c0.56-0.215 1.14-0.301 1.742-0.26s1.182 0.193 1.742 0.454l4.701 1.902c1.434 0.549 2.407 1.554 2.917 3.015s0.459 2.895-0.158 4.3l5.081 10.171c0.158 0.428 0.333 0.851 0.524 1.27s0.287 0.846 0.287 1.283c0 1.646-0.589 3.032-1.766 4.157s-2.594 1.687-4.25 1.687c-0.428 0-0.833-0.086-1.214-0.258s-0.767-0.337-1.158-0.496l-3.36-1.651h-26.422l-3.179 1.651c-0.475 0.195-0.958 0.37-1.451 0.524s-1.010 0.23-1.55 0.23z"></path>
    </symbol>
  
  </defs>
</svg>
