<svg xmlns="http://www.w3.org/2000/svg" aria-hidden="true" style="position:absolute;width:0;height:0;overflow:hidden" version="1.1">
  <defs>

    <symbol id="icon-arrow_outward" viewBox="0 0 32 32">
      <path d="M21.72 10.401 8.926 23.203q-.347.34-.8.34c-.453 0-.565-.116-.792-.348q-.348-.348-.348-.8c0-.452.116-.568.348-.8L20.128 8.801H8.863q-.489 0-.816-.329c-.327-.329-.327-.49-.327-.812q0-.483.327-.806c.327-.323.49-.323.816-.323h14q.481 0 .808.328c.327.328.327.488.327.808v14q0 .481-.329.808c-.329.327-.49.328-.812.328q-.491 0-.815-.328c-.324-.328-.323-.487-.323-.808V10.402z"/>
    </symbol>
    <symbol id="icon-close" viewBox="0 0 32 32">
      <path stroke-linecap="butt" stroke-linejoin="miter" stroke-miterlimit="4" stroke-width="1.333" d="M23.466 7.9c.219 0 .355.065.462.172s.172.242.172.461-.065.355-.172.462L16.923 16l7.005 7.004c.107.107.172.243.172.462s-.065.355-.172.462-.243.172-.462.172-.355-.065-.462-.172L16 16.923l-7.005 7.005c-.107.107-.243.172-.462.172s-.354-.065-.461-.172-.172-.243-.172-.462.065-.355.172-.462L15.076 16 8.072 8.995c-.107-.107-.172-.243-.172-.462s.065-.354.172-.461.242-.172.461-.172.355.065.462.172L16 15.076l7.004-7.004c.107-.107.243-.172.462-.172"/>
    </symbol>
    <symbol id="icon-facebook" viewBox="0 0 32 32">
      <path d="M29.333 16.405C29.333 8.996 23.364 2.99 16 2.99S2.667 8.996 2.667 16.405c0 6.696 4.876 12.245 11.25 13.252v-9.374h-3.385v-3.878h3.385V13.45c0-3.362 1.991-5.219 5.036-5.219 1.459 0 2.985.262 2.985.262v3.301h-1.681c-1.656 0-2.173 1.034-2.173 2.095v2.516h3.698l-.591 3.878h-3.107v9.374c6.374-1.006 11.25-6.556 11.25-13.252z"/>
    </symbol>
    <symbol id="icon-instagram" viewBox="0 0 32 32">
      <path d="M15.998 6.161c3.206 0 3.585.014 4.846.071 1.172.052 1.804.248 2.226.412.558.216.961.478 1.378.895.422.422.679.82.9 1.378.164.422.361 1.059.412 2.226.056 1.266.071 1.645.071 4.847s-.014 3.585-.071 4.847c-.052 1.172-.248 1.804-.412 2.227a3.7 3.7 0 0 1-.895 1.377c-.422.422-.82.679-1.378.9-.422.164-1.06.361-2.226.412-1.266.056-1.645.071-4.847.071s-3.585-.014-4.847-.071c-1.172-.052-1.804-.248-2.226-.412a3.7 3.7 0 0 1-1.378-.895 3.8 3.8 0 0 1-.9-1.378c-.164-.422-.361-1.06-.412-2.226-.056-1.266-.071-1.645-.071-4.847s.014-3.585.071-4.847c.052-1.172.248-1.804.412-2.226.216-.558.478-.961.895-1.378.422-.422.82-.679 1.378-.9.422-.164 1.059-.361 2.226-.412 1.261-.056 1.641-.071 4.847-.071zm0-2.16c-3.258 0-3.665.014-4.945.071-1.275.056-2.151.262-2.91.558a5.85 5.85 0 0 0-2.127 1.387A5.9 5.9 0 0 0 4.629 8.14c-.295.764-.502 1.636-.558 2.91C4.015 12.335 4 12.742 4 15.999s.014 3.665.071 4.945c.056 1.275.262 2.151.558 2.91a5.9 5.9 0 0 0 1.387 2.127 5.9 5.9 0 0 0 2.123 1.383c.764.295 1.636.502 2.91.558 1.279.056 1.687.071 4.945.071s3.666-.014 4.945-.071c1.275-.056 2.151-.262 2.91-.558.787-.305 1.458-.717 2.123-1.383s1.078-1.336 1.383-2.123c.295-.764.502-1.635.558-2.91.056-1.279.071-1.687.071-4.945s-.014-3.665-.071-4.945c-.056-1.275-.262-2.151-.558-2.91a5.6 5.6 0 0 0-1.373-2.133 5.9 5.9 0 0 0-2.123-1.383c-.764-.295-1.635-.502-2.91-.558-1.284-.061-1.692-.075-4.949-.075L15.999 4z"/>
      <path d="M15.998 9.836a6.164 6.164 0 1 0 6.163 6.163 6.164 6.164 0 0 0-6.163-6.163m0 10.161a3.998 3.998 0 1 1 0-7.996 3.998 3.998 0 0 1 0 7.996M23.843 9.592a1.439 1.439 0 1 1-2.877 0 1.439 1.439 0 0 1 2.877 0"/>
    </symbol>
    <symbol id="icon-keyboard_arrow_down" viewBox="0 0 32 32">
      <path d="M16 20.269q-.224 0-.422-.083a.96.96 0 0 1-.381-.265l-6.592-6.592q-.34-.34-.323-.812c.017-.472.13-.586.357-.812q.34-.34.812-.34c.472 0 .586.113.812.34l5.738 5.771 5.771-5.771q.34-.34.796-.323c.456.017.569.13.796.357q.34.34.34.812c0 .472-.113.586-.34.812l-6.559 6.559q-.183.183-.381.265a.9.9 0 0 1-.422.083z"/>
    </symbol>
    <symbol id="icon-menu" viewBox="0 0 32 32">
      <path d="M4.936 24.295q-.481 0-.808-.329c-.327-.329-.327-.493-.327-.82q0-.483.327-.807c.327-.324.488-.323.808-.323h22.127q.481 0 .812.329c.331.329.331.49.331.812q0 .491-.331.814c-.331.323-.492.323-.812.323zm0-7.159q-.481 0-.808-.329c-.327-.329-.327-.49-.327-.812q0-.483.327-.806c.327-.323.488-.323.808-.323h22.127q.481 0 .812.329c.331.329.331.49.331.812q0 .483-.331.806c-.331.323-.492.323-.812.323zm0-7.152q-.481 0-.808-.329c-.327-.329-.327-.493-.327-.82q0-.483.327-.806c.327-.323.488-.323.808-.323h22.127q.481 0 .812.329c.331.329.331.49.331.812q0 .492-.331.815c-.331.323-.492.323-.812.323z"/>
    </symbol>
    <symbol id="icon-youtube" viewBox="0 0 32 32">
      <path d="M28.791 9.604a3.35 3.35 0 0 0-2.35-2.354C24.353 6.677 16 6.667 16 6.667s-8.352-.009-10.441.539a3.416 3.416 0 0 0-2.354 2.371c-.551 2.088-.556 6.419-.556 6.419s-.005 4.352.541 6.419a3.34 3.34 0 0 0 2.351 2.353c2.109.573 10.44.583 10.44.583s8.353.009 10.441-.537a3.36 3.36 0 0 0 2.356-2.35c.552-2.087.556-6.416.556-6.416s.027-4.353-.543-6.441zM13.328 20.007l.007-8 6.943 4.007z"/>
    </symbol>
    <symbol id="icon-arrow" viewBox="0 0 32 32">
      <path stroke-linejoin="miter" stroke-linecap="butt" stroke-miterlimit="4" stroke-width="2" d="M15.643 1c0.171 0 0.318 0.053 0.482 0.217 0.165 0.172 0.217 0.326 0.217 0.498-0 0.174-0.053 0.322-0.217 0.486l-12.723 12.723h26.82c0.243 0 0.393 0.071 0.522 0.197 0.124 0.123 0.193 0.266 0.193 0.506s-0.069 0.383-0.193 0.506c-0.128 0.127-0.279 0.197-0.522 0.197h-26.82l12.711 12.709c0.165 0.165 0.221 0.319 0.223 0.502v0.002c0.001 0.133-0.028 0.25-0.111 0.369l-0.104 0.123c-0.16 0.162-0.306 0.214-0.484 0.213-0.189-0.002-0.346-0.062-0.512-0.227l-13.896-13.896c-0.106-0.108-0.158-0.193-0.182-0.25v-0.002c-0.030-0.073-0.047-0.153-0.047-0.248s0.017-0.173 0.047-0.244v-0.002c0.024-0.057 0.075-0.142 0.182-0.25l13.9-13.9c0.181-0.174 0.34-0.229 0.514-0.229z"></path>
    </symbol>
    <symbol id="icon-half-star" viewBox="0 0 32 32">
<path d="M31.829 11.312l0.128 0.4c0.105 0.302 0.017 0.637-0.223 0.848l-7.755 6.64 2.298 9.952c0.078 0.318-0.042 0.652-0.303 0.848l-0.351 0.24c-0.136 0.107-0.305 0.164-0.479 0.16-0.146 0.003-0.29-0.036-0.415-0.112l-8.728-5.328-8.68 5.328c-0.125 0.076-0.269 0.115-0.415 0.112-0.173 0.004-0.342-0.053-0.479-0.16l-0.399-0.24c-0.262-0.196-0.381-0.53-0.303-0.848l2.298-9.952-7.739-6.624c-0.252-0.209-0.348-0.554-0.239-0.864l0.176-0.4c0.093-0.316 0.374-0.54 0.702-0.56l10.196-0.816 3.909-9.424c0.125-0.313 0.43-0.516 0.766-0.512h0.415c0.333-0.007 0.634 0.198 0.75 0.512l3.973 9.424 10.196 0.816c0.328 0.020 0.609 0.244 0.702 0.56zM22.574 25.696l-1.787-7.488 5.856-5.008-7.675-0.608-2.968-7.136v16.224l6.574 4.016z"></path>
</symbol>
<symbol id="icon-star" viewBox="0 0 32 32">
<path stroke-linejoin="miter" stroke-linecap="butt" stroke-miterlimit="4" stroke-width="2" d="M15.436 1.367c0.207-0.489 0.922-0.489 1.129 0l3.246 7.711c0.379 0.899 1.232 1.507 2.201 1.584l8.426 0.666c0.559 0.044 0.741 0.703 0.351 1.033l-6.42 5.434c-0.744 0.63-1.073 1.624-0.844 2.574l1.961 8.123c0.116 0.479-0.425 0.932-0.916 0.637l-7.215-4.354c-0.833-0.502-1.878-0.503-2.711 0l-7.215 4.354c-0.491 0.295-1.032-0.157-0.916-0.637l1.961-8.123c0.229-0.951-0.099-1.944-0.844-2.574l-6.42-5.434c-0.389-0.33-0.207-0.989 0.352-1.033l8.426-0.666c0.97-0.077 1.822-0.684 2.201-1.584l3.246-7.711z"></path>
</symbol>
    <symbol id="icon-arrow_back" viewBox="0 0 32 32">
      <path d="M9.46 17.136l7.336 7.335c0.227 0.227 0.341 0.494 0.344 0.8s-0.109 0.574-0.336 0.803c-0.227 0.229-0.494 0.343-0.802 0.34s-0.577-0.117-0.805-0.344l-9.267-9.267c-0.121-0.123-0.21-0.25-0.265-0.383s-0.083-0.273-0.083-0.422 0.028-0.289 0.083-0.421c0.055-0.132 0.143-0.259 0.265-0.382l9.275-9.275c0.234-0.226 0.503-0.34 0.806-0.34s0.567 0.113 0.794 0.34c0.226 0.232 0.34 0.5 0.34 0.803s-0.113 0.569-0.34 0.796l-7.344 7.343h16.27c0.325 0 0.597 0.108 0.816 0.323s0.328 0.486 0.328 0.812-0.109 0.597-0.328 0.812c-0.219 0.215-0.491 0.323-0.816 0.323h-16.27z"></path>
    </symbol>
    <symbol id="icon-arrow_forward" viewBox="0 0 32 32">
      <path d="M22.54 17.136h-16.27c-0.326 0-0.597-0.108-0.812-0.323s-0.323-0.486-0.323-0.812 0.108-0.597 0.323-0.812c0.215-0.215 0.486-0.323 0.812-0.323h16.27l-7.336-7.335c-0.227-0.227-0.341-0.494-0.344-0.801s0.109-0.575 0.336-0.803c0.227-0.229 0.495-0.342 0.803-0.339s0.577 0.117 0.805 0.344l9.267 9.267c0.121 0.123 0.21 0.25 0.265 0.383s0.083 0.273 0.083 0.422-0.028 0.289-0.083 0.421c-0.055 0.132-0.143 0.259-0.265 0.382l-9.275 9.267c-0.234 0.232-0.503 0.348-0.806 0.348s-0.567-0.117-0.794-0.35c-0.226-0.227-0.34-0.492-0.34-0.795s0.113-0.568 0.34-0.794l7.344-7.343z"></path>
    </symbol>
  
  </defs>
</svg>
