<svg width="32" height="32" viewBox="0 0 32 32" fill="none" xmlns="http://w3.org">
  <rect width="32" height="32" fill="#FCEAEA" />
  <path d="M25.72 22.55C26.26 22.82 26.71 22.73 27.08 22.28C27.45 21.82 27.49 21.34 27.21 20.84L25.09 16.84L23.48 21.23L25.72 22.55ZM19.38 21.29H21.49L24.37 14.06C24.49 13.78 24.54 13.5 24.51 13.24C24.48 12.97 24.31 12.76 24.01 12.62L21.53 11.55C21.25 11.41 20.97 11.41 20.69 11.55C20.42 11.69 20.27 11.9 20.25 12.17L19.38 21.29ZM10.52 21.29H12.59L11.75 12.17C11.73 11.88 11.6 11.66 11.35 11.52C11.1 11.38 10.81 11.39 10.47 11.55L8.11 12.56C7.85 12.66 7.7 12.89 7.67 13.24C7.64 13.58 7.68 13.9 7.78 14.18L10.52 21.29ZM6.28 22.55L8.52 21.23L6.91 16.84L4.79 20.99C4.51 21.55 4.57 22 4.97 22.35C5.36 22.7 5.8 22.76 6.28 22.55ZM14.39 21.29H17.58L18.57 10.41C18.61 10.13 18.54 9.9 18.35 9.71C18.16 9.52 17.92 9.43 17.64 9.43H14.36C14.04 9.43 13.8 9.52 13.64 9.71C13.48 9.9 13.41 10.13 13.43 10.41L14.39 21.29ZM5.62 24.53C4.8 24.53 4.1 24.24 3.53 23.65C2.96 23.06 2.68 22.35 2.68 21.53C2.68 21.28 2.72 21.03 2.81 20.79C2.9 20.55 3 20.31 3.11 20.08L5.84 14.79C5.54 13.98 5.52 13.18 5.78 12.38C6.04 11.59 6.55 11.03 7.3 10.7L9.78 9.69C10.1 9.57 10.43 9.5 10.75 9.47C11.08 9.45 11.39 9.53 11.67 9.7C11.81 9.05 12.13 8.51 12.63 8.1C13.13 7.68 13.7 7.47 14.36 7.47H17.64C18.3 7.47 18.87 7.66 19.37 8.05C19.87 8.44 20.19 8.95 20.33 9.58C20.62 9.47 20.94 9.42 21.26 9.44C21.58 9.47 21.89 9.55 22.19 9.69L24.7 10.7C25.46 11 25.98 11.53 26.26 12.31C26.53 13.09 26.5 13.86 26.17 14.61L28.89 20.05C28.97 20.27 29.07 20.5 29.17 20.72C29.27 20.95 29.32 21.18 29.32 21.41C29.32 22.29 29.01 23.03 28.38 23.63C27.75 24.23 26.99 24.53 26.11 24.53C25.88 24.53 25.66 24.49 25.46 24.39C25.25 24.3 25.05 24.21 24.84 24.13L23.04 23.25H8.93L7.23 24.13C6.97 24.23 6.72 24.33 6.45 24.41C6.19 24.49 5.91 24.53 5.62 24.53Z" fill="#080C0C" />
</svg>